<?xml version="1.0" encoding="utf-8"?>
<!-- Generator: Adobe Illustrator 22.1.0, SVG Export Plug-In . SVG Version: 6.00 Build 0)  -->
<svg version="1.1" id="Layer_1" xmlns="http://www.w3.org/2000/svg" xmlns:xlink="http://www.w3.org/1999/xlink" x="0px" y="0px"
	 viewBox="0 0 1000 500" style="enable-background:new 0 0 1000 500;" xml:space="preserve">
<style type="text/css">
	.st1{fill:none;}
</style>
<g>
	<circle class="st1" cx="500" cy="500" r="350"/>
	<path d="M500.3,148.7l9.5-110l64.4,5.6l-1.1,12.9L524.1,53l-2.8,32.8l46.2,4l-1.1,13.1l-46.2-4l-3.3,38.1l50.2,4.3l-1.1,13.1
		L500.3,148.7z"/>
	<path d="M665,188.6l16.2-41.3c3.2-8.2,6-19.7-5.5-24.1c-11.3-4.4-21.2,4.2-26.2,16.9L635,176.9l-14.3-5.6l16.2-41.3
		c4.1-10.4,4.9-20.1-5.3-24.1c-11.3-4.4-21.2,4.2-26.2,16.9l-14.4,36.8l-14.3-5.6l27.7-70.8l14.3,5.6l-4.5,11.1l0.4,0.2
		c5.8-5.3,15.9-8.2,25.3-4.5c10.4,4.1,15.9,11.7,15.5,22.2c8.3-7.1,18-9.1,28-5.2c18.9,7.4,18.6,23.2,12.6,38.6l-16.8,42.9
		L665,188.6z"/>
	<path d="M724.1,230.7l5.7-7.7c-4.4,0.7-15,2.8-26.1-5.6c-11.2-8.5-15.5-22.9-6.6-34.6c9-11.8,23.2-10.4,37.7-0.4l16.6,11.7l1.8-2.4
		c7-9.2,4.2-18.5-4.5-25.2s-19.2-8.4-22.2-8.6l2.5-11c6.4,0.8,17.3,3.5,27.3,11.2c17.7,13.5,19.7,29.1,6.3,46.6L736,239.8
		L724.1,230.7z M731.2,191.7c-10.2-7-17.3-5.8-21.7,0c-4.4,5.7-3.5,13.8,4.5,19.9c7.9,6,17.2,4.6,22.1,3l9.9-13L731.2,191.7z"/>
	<path d="M746.9,251.8l54.8-52.7l10.6,11.1l-54.8,52.7L746.9,251.8z M818.2,193.9c-4.1-4.3-4.1-10-0.2-13.8
		c3.9-3.8,9.7-3.5,13.8,0.7c4,4.2,4,9.9,0.1,13.7C828,198.3,822.2,198.1,818.2,193.9z"/>
	<path d="M770.6,277.9l86.8-68.2l9.4,12L780,289.9L770.6,277.9z"/>
</g>
</svg>
