<?xml version="1.0" encoding="utf-8"?>
<!-- Generator: Adobe Illustrator 22.1.0, SVG Export Plug-In . SVG Version: 6.00 Build 0)  -->
<svg version="1.1" id="Layer_2_1_" xmlns="http://www.w3.org/2000/svg" xmlns:xlink="http://www.w3.org/1999/xlink" x="0px" y="0px"
	 viewBox="0 0 1000 499.8" style="enable-background:new 0 0 1000 499.8;" xml:space="preserve">
<style type="text/css">
	.st0{enable-background:new    ;}
</style>
<g class="st0">
	<path d="M443,359.7l23.3,50.2l11.7,1.3l5.2-47l15.4,1.7l-12.1,109.3l-30.9-3.4c-19.5-2.2-35.9-13.1-33.5-34.8
		c2.1-19.2,16.4-26.2,28.2-27.2l-25.8-52.1L443,359.7z M443.3,453.7c4.5,4.2,10.3,5.2,17.9,6l11.2,1.2l4.1-37.1l-11.2-1.2
		c-7.6-0.8-13.5-1.2-18.8,1.8c-5.3,3.1-7.9,7.3-8.6,14C437.2,444.9,438.7,449.7,443.3,453.7z"/>
</g>
<g class="st0">
	<path d="M337.8,361.8l55,20.5c4.5-14.4-1.3-26.4-14.6-31.3c-13.4-5-24.6-1-26.7-0.5l-2.9-10.5c1.2-0.4,14.3-7.5,35.6,0.4
		c21.2,7.9,30.3,28.1,21.9,50.8c-8.4,22.6-30.2,30.9-50,23.5c-19.9-7.4-28.6-26.7-21.1-46.7C336,365.3,337.8,361.8,337.8,361.8z
		 M360.4,404.5c14.3,5.3,25-4.2,28.7-12.6l-41.7-15.5C344.6,384.4,346,399.1,360.4,404.5z"/>
</g>
<g class="st0">
	<path d="M317.3,306.2c10.7,7,16.5,17.1,17.3,27.6l-11.1,3.5c-1.7-9.1-6.9-17.5-12.8-21.4c-5.9-3.9-13.6-5.8-18.1,1.1
		c-4.6,7,4.1,15.7,7.4,20c7.3,9.4,14.4,18.8,6.5,30.9c-7.7,11.8-22.1,11.5-33.3,4.2c-11.2-7.4-15-15.6-16.2-22.5l10.5-4.4
		c1.2,6.3,5.4,13.3,11.6,17.4c6.2,4,11.9,4,15.3-1.2c3.4-5.2-1.2-11.5-6.2-17.7c-2.7-3.5-4.6-5.9-6.5-8.7
		c-5.2-7.6-7.2-16.2-1.7-24.5C288.8,296.7,304.9,298.1,317.3,306.2z"/>
</g>
<g class="st0">
	<path d="M243.6,245.3l-7.7,7.7c8.2-2.2,18.1,0.4,25.6,8.1c14.8,15.2,9,28.6-4.6,41.9l-32.8,31.9l-10.6-10.9l32.4-31.5
		c7.5-7.3,12.9-15.7,3.4-25.5c-9.4-9.7-21.5-5.5-30.7,3.4l-29.4,28.6l-10.8-11.1l54.8-53.3L243.6,245.3z"/>
</g>
<g class="st0">
	<path d="M176.2,134.2l-39.7,19.7c-7.9,3.9-17.6,10.5-12.2,21.6c5.4,10.9,18.6,11.1,30.8,5.1l35.4-17.6l6.8,13.8l-39.7,19.7
		c-10,5-17.1,11.5-12.2,21.4c5.4,10.9,18.6,11.1,30.8,5.1l35.4-17.6l6.8,13.8l-68.1,33.8l-6.8-13.8l10.8-5.2l-0.2-0.4
		c-7.9,0-17.3-4.6-21.8-13.7c-5-10-3.9-19.3,3.4-26.9c-10.9-0.3-19.4-5.3-24.2-14.9c-9-18.2,1.9-29.7,16.6-37l41.3-20.5L176.2,134.2
		z"/>
</g>
<g class="st0">
	<path d="M122.2,36.7l8.9,57.9c14.7-3.1,22.3-14,20.2-27.9c-2.2-14.1-11.1-21.9-12.5-23.5l7.7-7.7c0.9,0.8,13.5,8.8,16.9,31.2
		c3.4,22.3-9.7,40-33.6,43.7c-23.7,3.6-41.6-11.3-44.8-32.1c-3.2-20.9,9.4-37.9,30.4-41.1C118.3,36.8,122.2,36.7,122.2,36.7z
		 M96,77.2c2.3,15,15.8,19.7,24.9,18.8l-6.7-43.8C105.8,53.6,93.7,62,96,77.2z"/>
</g>
</svg>
